<svg width="415" height="76" viewBox="0 0 415 76" fill="none" xmlns="http://www.w3.org/2000/svg">
<rect x="0.5" y="31.0641" width="413.535" height="44.2769" rx="3.5" fill="white" stroke="#D9D9D9"/>
<g opacity="0.3">
<path fill-rule="evenodd" clip-rule="evenodd" d="M383.004 52.8078C382.908 52.9574 382.828 53.0907 382.764 53.2026C382.828 53.3146 382.908 53.4478 383.004 53.5974C383.315 54.0832 383.792 54.7315 384.451 55.3777C385.763 56.6656 387.761 57.919 390.62 57.919C393.478 57.919 395.477 56.6656 396.789 55.3777C397.447 54.7315 397.924 54.0832 398.236 53.5974C398.332 53.4478 398.411 53.3146 398.475 53.2026C398.411 53.0907 398.332 52.9574 398.236 52.8078C397.924 52.3221 397.447 51.6737 396.789 51.0276C395.477 49.7397 393.478 48.4863 390.62 48.4863C387.761 48.4863 385.763 49.7397 384.451 51.0276C383.792 51.6737 383.315 52.3221 383.004 52.8078ZM400.504 53.575C400.504 53.5746 400.504 53.5742 399.588 53.2026L400.504 53.5742C400.611 53.3369 400.611 53.0683 400.504 52.831L399.588 53.2026C400.504 52.831 400.504 52.8306 400.504 52.8302L400.503 52.8292L400.502 52.8269L400.499 52.8207L400.491 52.8023C400.484 52.7873 400.474 52.767 400.461 52.7418C400.437 52.6915 400.401 52.6213 400.355 52.5342C400.262 52.36 400.124 52.1173 399.939 51.8288C399.57 51.2534 399.006 50.4868 398.223 49.7181C396.653 48.1762 394.167 46.5997 390.62 46.5997C387.072 46.5997 384.587 48.1762 383.016 49.7181C382.233 50.4868 381.669 51.2534 381.3 51.8288C381.115 52.1173 380.977 52.36 380.885 52.5342C380.838 52.6213 380.803 52.6915 380.778 52.7418C380.766 52.767 380.756 52.7873 380.749 52.8023L380.74 52.8207L380.737 52.8269L380.736 52.8292L380.736 52.8302C380.736 52.8306 380.735 52.831 381.651 53.2026L380.735 52.831C380.628 53.0683 380.628 53.3369 380.735 53.5742L381.651 53.2026C380.735 53.5742 380.736 53.5746 380.736 53.575L380.736 53.576L380.737 53.5783L380.74 53.5845L380.749 53.603C380.756 53.6179 380.766 53.6382 380.778 53.6634C380.803 53.7138 380.838 53.7839 380.885 53.8711C380.977 54.0452 381.115 54.288 381.3 54.5765C381.669 55.1519 382.233 55.9184 383.016 56.6872C384.587 58.2291 387.072 59.8055 390.62 59.8055C394.167 59.8055 396.653 58.2291 398.223 56.6872C399.006 55.9184 399.57 55.1519 399.939 54.5765C400.124 54.288 400.262 54.0452 400.355 53.8711C400.401 53.7839 400.437 53.7138 400.461 53.6634C400.474 53.6382 400.484 53.6179 400.491 53.603L400.499 53.5845L400.502 53.5783L400.503 53.576L400.504 53.575ZM390.62 55.0892C389.519 55.0892 388.627 54.2445 388.627 53.2026C388.627 52.1607 389.519 51.3161 390.62 51.3161C391.72 51.3161 392.613 52.1607 392.613 53.2026C392.613 54.2445 391.72 55.0892 390.62 55.0892ZM386.634 53.2026C386.634 51.1188 388.418 49.4295 390.62 49.4295C392.821 49.4295 394.606 51.1188 394.606 53.2026C394.606 55.2864 392.821 56.9757 390.62 56.9757C388.418 56.9757 386.634 55.2864 386.634 53.2026Z" fill="black"/>
</g>
<path opacity="0.5" d="M19.232 54.32L17.392 56L16.752 54.88L19.072 54.08L16.752 53.28L17.392 52.16L19.232 53.84L18.752 51.44H20.032L19.552 53.84L21.392 52.16L22.032 53.28L19.712 54.08L22.032 54.88L21.392 56L19.552 54.32L20.032 56.72H18.752L19.232 54.32ZM26.0133 54.32L24.1733 56L23.5333 54.88L25.8533 54.08L23.5333 53.28L24.1733 52.16L26.0133 53.84L25.5333 51.44H26.8133L26.3333 53.84L28.1733 52.16L28.8133 53.28L26.4933 54.08L28.8133 54.88L28.1733 56L26.3333 54.32L26.8133 56.72H25.5333L26.0133 54.32ZM32.7945 54.32L30.9545 56L30.3145 54.88L32.6345 54.08L30.3145 53.28L30.9545 52.16L32.7945 53.84L32.3145 51.44H33.5945L33.1145 53.84L34.9545 52.16L35.5945 53.28L33.2745 54.08L35.5945 54.88L34.9545 56L33.1145 54.32L33.5945 56.72H32.3145L32.7945 54.32ZM39.5758 54.32L37.7358 56L37.0958 54.88L39.4158 54.08L37.0958 53.28L37.7358 52.16L39.5758 53.84L39.0958 51.44H40.3758L39.8958 53.84L41.7358 52.16L42.3758 53.28L40.0558 54.08L42.3758 54.88L41.7358 56L39.8958 54.32L40.3758 56.72H39.0958L39.5758 54.32ZM46.357 54.32L44.517 56L43.877 54.88L46.197 54.08L43.877 53.28L44.517 52.16L46.357 53.84L45.877 51.44H47.157L46.677 53.84L48.517 52.16L49.157 53.28L46.837 54.08L49.157 54.88L48.517 56L46.677 54.32L47.157 56.72H45.877L46.357 54.32ZM53.1383 54.32L51.2983 56L50.6583 54.88L52.9783 54.08L50.6583 53.28L51.2983 52.16L53.1383 53.84L52.6583 51.44H53.9383L53.4583 53.84L55.2983 52.16L55.9383 53.28L53.6183 54.08L55.9383 54.88L55.2983 56L53.4583 54.32L53.9383 56.72H52.6583L53.1383 54.32ZM59.9195 54.32L58.0795 56L57.4395 54.88L59.7595 54.08L57.4395 53.28L58.0795 52.16L59.9195 53.84L59.4395 51.44H60.7195L60.2395 53.84L62.0795 52.16L62.7195 53.28L60.3995 54.08L62.7195 54.88L62.0795 56L60.2395 54.32L60.7195 56.72H59.4395L59.9195 54.32ZM66.7008 54.32L64.8608 56L64.2208 54.88L66.5408 54.08L64.2208 53.28L64.8608 52.16L66.7008 53.84L66.2208 51.44H67.5008L67.0208 53.84L68.8608 52.16L69.5008 53.28L67.1808 54.08L69.5008 54.88L68.8608 56L67.0208 54.32L67.5008 56.72H66.2208L66.7008 54.32ZM73.482 54.32L71.642 56L71.002 54.88L73.322 54.08L71.002 53.28L71.642 52.16L73.482 53.84L73.002 51.44H74.282L73.802 53.84L75.642 52.16L76.282 53.28L73.962 54.08L76.282 54.88L75.642 56L73.802 54.32L74.282 56.72H73.002L73.482 54.32ZM80.2633 54.32L78.4233 56L77.7833 54.88L80.1033 54.08L77.7833 53.28L78.4233 52.16L80.2633 53.84L79.7833 51.44H81.0633L80.5833 53.84L82.4233 52.16L83.0633 53.28L80.7433 54.08L83.0633 54.88L82.4233 56L80.5833 54.32L81.0633 56.72H79.7833L80.2633 54.32ZM87.0445 54.32L85.2045 56L84.5645 54.88L86.8845 54.08L84.5645 53.28L85.2045 52.16L87.0445 53.84L86.5645 51.44H87.8445L87.3645 53.84L89.2045 52.16L89.8445 53.28L87.5245 54.08L89.8445 54.88L89.2045 56L87.3645 54.32L87.8445 56.72H86.5645L87.0445 54.32ZM93.8258 54.32L91.9858 56L91.3458 54.88L93.6658 54.08L91.3458 53.28L91.9858 52.16L93.8258 53.84L93.3458 51.44H94.6258L94.1458 53.84L95.9858 52.16L96.6258 53.28L94.3058 54.08L96.6258 54.88L95.9858 56L94.1458 54.32L94.6258 56.72H93.3458L93.8258 54.32Z" fill="#444150"/>
<g clip-path="url(#clip0_12_120)">
<path fill-rule="evenodd" clip-rule="evenodd" d="M79.7183 12.6421C79.7183 16.2887 82.8413 19.245 86.6937 19.245C90.5461 19.245 93.669 16.2887 93.669 12.6421C93.669 8.9954 90.5461 6.03918 86.6937 6.03918C82.8413 6.03918 79.7183 8.9954 79.7183 12.6421ZM81.1134 12.6421C81.1134 9.72473 83.6118 7.35976 86.6937 7.35976C89.7756 7.35976 92.274 9.72473 92.274 12.6421C92.274 15.5594 89.7756 17.9244 86.6937 17.9244C83.6118 17.9244 81.1134 15.5594 81.1134 12.6421ZM87.0756 13.3459C87.0366 13.5863 86.8315 13.7989 86.5483 13.7989H86.4702C86.187 13.7989 85.9819 13.5955 85.9428 13.3459L85.8452 12.7173C85.7964 12.4123 85.9819 12.1997 86.2944 12.1627C87.144 12.061 87.5346 11.8114 87.5346 11.3585V11.34C87.5346 10.924 87.2026 10.6837 86.6362 10.6837C86.2163 10.6837 85.855 10.8038 85.5034 11.0534C85.3862 11.1366 85.23 11.2013 85.0639 11.2013C84.6929 11.2013 84.3804 10.9055 84.3804 10.5542C84.3804 10.3786 84.4585 10.1937 84.6343 10.0551C85.1518 9.64832 85.8061 9.38949 86.6655 9.38949C88.0717 9.38949 89.0287 10.0735 89.0287 11.303V11.3215C89.0287 12.4955 88.1694 12.9762 87.1049 13.1795L87.0756 13.3459ZM85.6206 15.2132V15.1947C85.6206 14.751 85.9819 14.409 86.4702 14.409C86.9585 14.409 87.3198 14.751 87.3198 15.1947V15.2132C87.3198 15.6569 86.9585 15.999 86.4702 15.999C85.9819 15.999 85.6206 15.6569 85.6206 15.2132Z" fill="black" fill-opacity="0.6"/>
</g>
<path d="M3.23438 15.317V19.3795H1.38281V8.17639H4.78125C6.06771 8.17639 7.0651 8.47587 7.77344 9.07483C8.48177 9.67379 8.83594 10.5175 8.83594 11.6061C8.83594 12.6946 8.46615 13.5852 7.72656 14.278C6.98698 14.9707 5.98698 15.317 4.72656 15.317H3.23438ZM3.23438 9.70764V13.8014H4.4375C5.23438 13.8014 5.84115 13.6165 6.25781 13.2467C6.67448 12.8769 6.88281 12.3561 6.88281 11.6842C6.88281 10.3665 6.11719 9.70764 4.58594 9.70764H3.23438ZM16.2109 19.3795H14.4531V18.1295H14.4219C13.8698 19.0878 13.0599 19.567 11.9922 19.567C11.2057 19.567 10.5885 19.3535 10.1406 18.9264C9.69792 18.4993 9.47656 17.9342 9.47656 17.2311C9.47656 15.7207 10.3464 14.8405 12.0859 14.5905L14.4609 14.2545C14.4609 13.1139 13.9193 12.5436 12.8359 12.5436C11.8828 12.5436 11.0234 12.8717 10.2578 13.528V11.942C11.1016 11.442 12.0755 11.192 13.1797 11.192C15.2005 11.192 16.2109 12.1868 16.2109 14.1764V19.3795ZM14.4609 15.4498L12.7812 15.6842C12.2604 15.7519 11.8672 15.8795 11.6016 16.067C11.3411 16.2493 11.2109 16.5722 11.2109 17.0358C11.2109 17.3743 11.3307 17.653 11.5703 17.8717C11.8151 18.0852 12.1406 18.192 12.5469 18.192C13.099 18.192 13.5547 17.9993 13.9141 17.6139C14.2786 17.2233 14.4609 16.7337 14.4609 16.1451V15.4498ZM17.9297 19.1295V17.4498C18.6068 17.9655 19.3542 18.2233 20.1719 18.2233C21.2656 18.2233 21.8125 17.9003 21.8125 17.2545C21.8125 17.0722 21.7656 16.9186 21.6719 16.7936C21.5781 16.6634 21.4505 16.5488 21.2891 16.4498C21.1328 16.3509 20.9453 16.2623 20.7266 16.1842C20.513 16.1061 20.2734 16.0175 20.0078 15.9186C19.6797 15.7884 19.3828 15.6503 19.1172 15.5045C18.8568 15.3587 18.638 15.1946 18.4609 15.0123C18.2891 14.8248 18.1589 14.6139 18.0703 14.3795C17.9818 14.1451 17.9375 13.8717 17.9375 13.5592C17.9375 13.1738 18.0286 12.8352 18.2109 12.5436C18.3932 12.2467 18.638 11.9993 18.9453 11.8014C19.2526 11.5983 19.6016 11.4472 19.9922 11.3483C20.3828 11.2441 20.7865 11.192 21.2031 11.192C21.9427 11.192 22.6042 11.304 23.1875 11.528V13.1139C22.625 12.7285 21.9792 12.5358 21.25 12.5358C21.0208 12.5358 20.8125 12.5592 20.625 12.6061C20.4427 12.653 20.2865 12.7181 20.1562 12.8014C20.026 12.8847 19.9245 12.9863 19.8516 13.1061C19.7786 13.2207 19.7422 13.3483 19.7422 13.4889C19.7422 13.6608 19.7786 13.8066 19.8516 13.9264C19.9245 14.0462 20.0312 14.153 20.1719 14.2467C20.3177 14.3352 20.4896 14.4186 20.6875 14.4967C20.8906 14.5696 21.1224 14.6503 21.3828 14.7389C21.7266 14.8795 22.0339 15.0227 22.3047 15.1686C22.5807 15.3144 22.8151 15.4811 23.0078 15.6686C23.2005 15.8509 23.349 16.0644 23.4531 16.3092C23.5573 16.5488 23.6094 16.8352 23.6094 17.1686C23.6094 17.5748 23.5156 17.929 23.3281 18.2311C23.1406 18.5332 22.8906 18.7832 22.5781 18.9811C22.2656 19.179 21.9036 19.3248 21.4922 19.4186C21.0859 19.5175 20.6562 19.567 20.2031 19.567C19.3281 19.567 18.5703 19.4212 17.9297 19.1295ZM24.8359 19.1295V17.4498C25.513 17.9655 26.2604 18.2233 27.0781 18.2233C28.1719 18.2233 28.7188 17.9003 28.7188 17.2545C28.7188 17.0722 28.6719 16.9186 28.5781 16.7936C28.4844 16.6634 28.3568 16.5488 28.1953 16.4498C28.0391 16.3509 27.8516 16.2623 27.6328 16.1842C27.4193 16.1061 27.1797 16.0175 26.9141 15.9186C26.5859 15.7884 26.2891 15.6503 26.0234 15.5045C25.763 15.3587 25.5443 15.1946 25.3672 15.0123C25.1953 14.8248 25.0651 14.6139 24.9766 14.3795C24.888 14.1451 24.8438 13.8717 24.8438 13.5592C24.8438 13.1738 24.9349 12.8352 25.1172 12.5436C25.2995 12.2467 25.5443 11.9993 25.8516 11.8014C26.1589 11.5983 26.5078 11.4472 26.8984 11.3483C27.2891 11.2441 27.6927 11.192 28.1094 11.192C28.849 11.192 29.5104 11.304 30.0938 11.528V13.1139C29.5312 12.7285 28.8854 12.5358 28.1562 12.5358C27.9271 12.5358 27.7188 12.5592 27.5312 12.6061C27.349 12.653 27.1927 12.7181 27.0625 12.8014C26.9323 12.8847 26.8307 12.9863 26.7578 13.1061C26.6849 13.2207 26.6484 13.3483 26.6484 13.4889C26.6484 13.6608 26.6849 13.8066 26.7578 13.9264C26.8307 14.0462 26.9375 14.153 27.0781 14.2467C27.224 14.3352 27.3958 14.4186 27.5938 14.4967C27.7969 14.5696 28.0286 14.6503 28.2891 14.7389C28.6328 14.8795 28.9401 15.0227 29.2109 15.1686C29.487 15.3144 29.7214 15.4811 29.9141 15.6686C30.1068 15.8509 30.2552 16.0644 30.3594 16.3092C30.4635 16.5488 30.5156 16.8352 30.5156 17.1686C30.5156 17.5748 30.4219 17.929 30.2344 18.2311C30.0469 18.5332 29.7969 18.7832 29.4844 18.9811C29.1719 19.179 28.8099 19.3248 28.3984 19.4186C27.9922 19.5175 27.5625 19.567 27.1094 19.567C26.2344 19.567 25.4766 19.4212 24.8359 19.1295ZM43 11.3795L40.6406 19.3795H38.7422L37.2891 13.9576C37.2318 13.7493 37.1953 13.5149 37.1797 13.2545H37.1484C37.138 13.4316 37.0911 13.6608 37.0078 13.942L35.4297 19.3795H33.5703L31.2188 11.3795H33.0938L34.5469 17.1451C34.5938 17.317 34.625 17.5462 34.6406 17.8326H34.6953C34.7109 17.6139 34.7526 17.3795 34.8203 17.1295L36.4375 11.3795H38.1406L39.5781 17.1686C39.625 17.3509 39.6589 17.58 39.6797 17.8561H39.7344C39.7448 17.6634 39.7839 17.4342 39.8516 17.1686L41.2734 11.3795H43ZM47.8359 19.567C46.6016 19.567 45.6146 19.1946 44.875 18.4498C44.1406 17.6998 43.7734 16.7076 43.7734 15.4733C43.7734 14.1295 44.1562 13.08 44.9219 12.3248C45.6927 11.5696 46.7292 11.192 48.0312 11.192C49.2812 11.192 50.2552 11.5592 50.9531 12.2936C51.651 13.028 52 14.0462 52 15.3483C52 16.6243 51.6224 17.6477 50.8672 18.4186C50.1172 19.1842 49.1068 19.567 47.8359 19.567ZM47.9219 12.6373C47.2135 12.6373 46.6536 12.8847 46.2422 13.3795C45.8307 13.8743 45.625 14.5566 45.625 15.4264C45.625 16.2649 45.8333 16.9264 46.25 17.4108C46.6667 17.8899 47.224 18.1295 47.9219 18.1295C48.6354 18.1295 49.1823 17.8925 49.5625 17.4186C49.9479 16.9446 50.1406 16.2701 50.1406 15.3951C50.1406 14.5149 49.9479 13.8352 49.5625 13.3561C49.1823 12.8769 48.6354 12.6373 47.9219 12.6373ZM58.4922 13.1061C58.2734 12.9342 57.9583 12.8483 57.5469 12.8483C57.0104 12.8483 56.5625 13.0905 56.2031 13.5748C55.8438 14.0592 55.6641 14.7181 55.6641 15.5514V19.3795H53.8516V11.3795H55.6641V13.028H55.6953C55.8724 12.4655 56.1432 12.028 56.5078 11.7155C56.8776 11.3977 57.2891 11.2389 57.7422 11.2389C58.0703 11.2389 58.3203 11.2884 58.4922 11.3873V13.1061ZM66.9062 19.3795H65.0938V18.0201H65.0625C64.4792 19.0514 63.5807 19.567 62.3672 19.567C61.3828 19.567 60.5938 19.2102 60 18.4967C59.4115 17.778 59.1172 16.8014 59.1172 15.567C59.1172 14.2441 59.4427 13.1842 60.0938 12.3873C60.75 11.5905 61.6224 11.192 62.7109 11.192C63.7891 11.192 64.5729 11.6243 65.0625 12.4889H65.0938V7.53577H66.9062V19.3795ZM65.1172 15.7233V14.6764C65.1172 14.1087 64.9323 13.6269 64.5625 13.2311C64.1927 12.8352 63.7214 12.6373 63.1484 12.6373C62.4714 12.6373 61.9375 12.8899 61.5469 13.3951C61.1615 13.9003 60.9688 14.6009 60.9688 15.4967C60.9688 16.3092 61.1536 16.9524 61.5234 17.4264C61.8984 17.8951 62.401 18.1295 63.0312 18.1295C63.651 18.1295 64.1536 17.903 64.5391 17.4498C64.9245 16.9915 65.1172 16.416 65.1172 15.7233Z" fill="#444150"/>
<path d="M74.4844 10.9342L72.3438 11.3014L73.8438 13.0905L72.7344 13.8561L71.5781 11.8248L70.4219 13.8561L69.3047 13.0905L70.8125 11.3014L68.6641 10.9342L69.1094 9.6842L71.1172 10.4889L70.8672 8.17639H72.2891L72.0391 10.4889L74.0469 9.6842L74.4844 10.9342Z" fill="#01BAB3"/>
<defs>
<clipPath id="clip0_12_120">
<rect width="15.9437" height="15.0923" fill="white" transform="translate(79.7183 6.03918)"/>
</clipPath>
</defs>
</svg>
